<?xml version="1.0" encoding="UTF-8" standalone="no"?>
<svg width="600" height="400" viewBox="0 0 600 400" xmlns="http://www.w3.org/2000/svg">
  <!-- Solid background -->
  <rect width="600" height="400" fill="#1e3360"/>
  
  <!-- Background with gradient (optional: you can remove or keep as overlay) -->
  <defs>
    <linearGradient id="bg-gradient" x1="0%" y1="0%" x2="100%" y2="100%">
      <stop offset="0%" stop-color="#ffffff" stop-opacity="0.1"/>
      <stop offset="100%" stop-color="#ffffff" stop-opacity="0.3"/>
    </linearGradient>
    <linearGradient id="card-gradient" x1="0%" y1="0%" x2="100%" y2="100%">
      <stop offset="0%" stop-color="#6366f1"/>
      <stop offset="100%" stop-color="#4f46e5"/>
    </linearGradient>
    <filter id="shadow" x="-5%" y="0%" width="110%" height="110%">
      <feDropShadow dx="0" dy="4" stdDeviation="8" flood-opacity="0.2"/>
    </filter>
  </defs>

  <!-- Background design elements (optional: you can remove these or keep as overlay) -->
  <circle cx="100" cy="50" r="80" fill="#ffffff" fill-opacity="0.05"/>
  <circle cx="550" cy="350" r="100" fill="#ffffff" fill-opacity="0.05"/>
  <circle cx="300" cy="150" r="50" fill="#ffffff" fill-opacity="0.05"/>
  <rect x="150" y="300" width="300" height="30" rx="15" fill="#ffffff" fill-opacity="0.05"/>
  <rect x="400" y="100" width="120" height="20" rx="10" fill="#ffffff" fill-opacity="0.05"/>

  <!-- Main illustration content -->
  <g transform="translate(150, 50)">
    <!-- Dashboard illustration -->
    <rect x="0" y="0" width="300" height="200" rx="10" fill="url(#card-gradient)" filter="url(#shadow)"/>
    <rect x="15" y="15" width="270" height="30" rx="5" fill="#ffffff" fill-opacity="0.2"/>
    
    <!-- Chart bars -->
    <rect x="30" y="65" width="30" height="60" rx="3" fill="#ffffff" fill-opacity="0.3"/>
    <rect x="70" y="80" width="30" height="45" rx="3" fill="#ffffff" fill-opacity="0.3"/>
    <rect x="110" y="50" width="30" height="75" rx="3" fill="#ffffff" fill-opacity="0.3"/>
    <rect x="150" y="70" width="30" height="55" rx="3" fill="#ffffff" fill-opacity="0.3"/>
    <rect x="190" y="40" width="30" height="85" rx="3" fill="#ffffff" fill-opacity="0.3"/>
    <rect x="230" y="90" width="30" height="35" rx="3" fill="#ffffff" fill-opacity="0.3"/>
    
    <!-- Chart line -->
    <polyline points="45,150 85,130 125,145 165,120 205,110 245,135" 
              stroke="#ffffff" stroke-width="3" fill="none" stroke-linecap="round" stroke-linejoin="round"/>
    
    <!-- Chart dots -->
    <circle cx="45" cy="150" r="4" fill="#ffffff"/>
    <circle cx="85" cy="130" r="4" fill="#ffffff"/>
    <circle cx="125" cy="145" r="4" fill="#ffffff"/>
    <circle cx="165" cy="120" r="4" fill="#ffffff"/>
    <circle cx="205" cy="110" r="4" fill="#ffffff"/>
    <circle cx="245" cy="135" r="4" fill="#ffffff"/>
    
    <!-- Bottom section -->
    <rect x="15" y="160" width="100" height="25" rx="5" fill="#ffffff" fill-opacity="0.2"/>
    <rect x="125" y="160" width="70" height="25" rx="5" fill="#ffffff" fill-opacity="0.2"/>
    <rect x="205" y="160" width="80" height="25" rx="5" fill="#ffffff" fill-opacity="0.2"/>
  </g>

  <!-- POS items -->
  <g transform="translate(100, 280)">
    <!-- Receipt -->
    <rect x="0" y="0" width="120" height="150" rx="5" fill="#ffffff" filter="url(#shadow)"/>
    <rect x="10" y="10" width="100" height="10" rx="2" fill="#e5e7eb"/>
    <rect x="10" y="30" width="80" height="6" rx="2" fill="#e5e7eb"/>
    <rect x="10" y="42" width="70" height="6" rx="2" fill="#e5e7eb"/>
    <rect x="10" y="54" width="90" height="6" rx="2" fill="#e5e7eb"/>
    <rect x="10" y="66" width="75" height="6" rx="2" fill="#e5e7eb"/>
    <rect x="10" y="78" width="60" height="6" rx="2" fill="#e5e7eb"/>
    <rect x="10" y="100" width="100" height="1" fill="#e5e7eb"/>
    <rect x="10" y="110" width="50" height="8" rx="2" fill="#e5e7eb"/>
    <rect x="70" y="110" width="40" height="8" rx="2" fill="#e5e7eb"/>
    <rect x="10" y="125" width="100" height="15" rx="3" fill="#4f46e5"/>
  </g>
  
  <!-- Product cards -->
  <g transform="translate(370, 250)">
    <!-- Card 1 -->
    <rect x="0" y="0" width="80" height="100" rx="8" fill="#ffffff" filter="url(#shadow)"/>
    <rect x="10" y="10" width="60" height="40" rx="4" fill="#f1f5f9"/>
    <rect x="25" y="20" width="30" height="20" rx="2" fill="#6366f1"/>
    <rect x="10" y="60" width="40" height="6" rx="2" fill="#94a3b8"/>
    <rect x="10" y="72" width="60" height="6" rx="2" fill="#94a3b8"/>
    <rect x="10" y="84" width="30" height="6" rx="2" fill="#4f46e5"/>
    
    <!-- Card 2 -->
    <rect x="90" y="20" width="80" height="100" rx="8" fill="#ffffff" filter="url(#shadow)"/>
    <rect x="100" y="30" width="60" height="40" rx="4" fill="#f1f5f9"/>
    <rect x="115" y="40" width="30" height="20" rx="2" fill="#6366f1"/>
    <rect x="100" y="80" width="40" height="6" rx="2" fill="#94a3b8"/>
    <rect x="100" y="92" width="60" height="6" rx="2" fill="#94a3b8"/>
    <rect x="100" y="104" width="30" height="6" rx="2" fill="#4f46e5"/>
  </g>
  
  <!-- Floating Elements -->
  <g>
    <!-- Chart icon -->
    <circle cx="80" cy="200" r="25" fill="#ffffff" filter="url(#shadow)"/>
    <path d="M70,200 L80,190 L90,200 L100,185" 
          stroke="#4f46e5" stroke-width="3" fill="none" stroke-linecap="round" stroke-linejoin="round"/>
    
    <!-- User icon -->
    <circle cx="500" cy="150" r="25" fill="#ffffff" filter="url(#shadow)"/>
    <circle cx="500" cy="142" r="8" fill="#4f46e5"/>
    <path d="M485,160 Q500,175 515,160" 
          stroke="#4f46e5" stroke-width="3" fill="none" stroke-linecap="round"/>
    
    <!-- Cart icon -->
    <circle cx="450" cy="300" r="25" fill="#ffffff" filter="url(#shadow)"/>
    <path d="M440,297 H460 L456,287 H444 Z" fill="#4f46e5"/>
    <circle cx="445" cy="303" r="3" fill="#4f46e5"/>
    <circle cx="455" cy="303" r="3" fill="#4f46e5"/>
  </g>
</svg>
